<svg width="24" height="24" viewBox="0 0 24 24" fill="none" xmlns="http://www.w3.org/2000/svg">
<path d="M19.2 15.272V11.2784C19.2 7.8464 19.2 6.132 18.1456 5.0656C17.0912 4 15.3936 4 12 4C8.6064 4 6.9088 4 5.8544 5.0656C4.8 6.1312 4.8 7.848 4.8 11.2784V15.2728C4.8 17.7496 4.8 18.9888 5.3872 19.5296C5.6672 19.788 6.0208 19.9504 6.3976 19.9936C7.1872 20.084 8.1096 19.268 9.9536 17.6368C10.7696 16.916 11.1768 16.5552 11.648 16.4608C11.88 16.4128 12.12 16.4128 12.352 16.4608C12.824 16.5552 13.2312 16.916 14.0464 17.6368C15.8904 19.268 16.8128 20.084 17.6024 19.9928C17.9784 19.9504 18.3328 19.788 18.6128 19.5296C19.2 18.9888 19.2 17.7496 19.2 15.272Z" stroke="white" stroke-width="1.2"/>
<path d="M14.4 7.19995H9.60001" stroke="white" stroke-width="1.2" stroke-linecap="round"/>
</svg>
