<svg width="24" height="24" viewBox="0 0 24 24" fill="none" xmlns="http://www.w3.org/2000/svg">
<path d="M7.137 17.571V6.43051C7.137 6.06251 7.259 5.76851 7.503 5.54851C7.746 5.32851 8.03 5.21851 8.355 5.21851C8.457 5.21851 8.5635 5.23251 8.6745 5.26051C8.7845 5.28751 8.89 5.32901 8.991 5.38501L17.7555 10.9845C17.9415 11.1145 18.0815 11.2635 18.1755 11.4315C18.2685 11.5985 18.315 11.788 18.315 12C18.315 12.212 18.2685 12.4015 18.1755 12.5685C18.0825 12.7355 17.9425 12.8845 17.7555 13.0155L8.991 18.615C8.89 18.67 8.7835 18.7115 8.6715 18.7395C8.5595 18.7675 8.453 18.7815 8.352 18.7815C8.026 18.7815 7.742 18.6715 7.5 18.4515C7.258 18.2315 7.137 17.938 7.137 17.571Z" fill="white"/>
</svg>
