<svg width="140" height="30" viewBox="0 0 140 30" fill="none" xmlns="http://www.w3.org/2000/svg">
<path d="M0 3H7.60315C12.0214 3 15.6031 6.58172 15.6031 11V11H0V3Z" fill="#6448CD"/>
<path d="M7.80139 19V19C3.4927 19 -0.000181198 22.4929 -0.000181198 26.8016V27H7.80139V19Z" fill="#FF9887"/>
<path d="M15.6039 11V11C19.9126 11 23.4055 14.4929 23.4055 18.8016V27H15.6039V11Z" fill="#6448CD"/>
<rect x="15.6039" y="3" width="7.80157" height="8" fill="#6448CD"/>
<path d="M32.9455 23V7.16H42.0425V8.777H34.5625V14.277H40.7225V15.883H34.5625V23H32.9455ZM47.0008 23.33C46.1061 23.33 45.3544 23.1687 44.7458 22.846C44.1444 22.5233 43.6934 22.0943 43.3928 21.559C43.0921 21.0237 42.9418 20.4407 42.9418 19.81C42.9418 19.1647 43.0701 18.6147 43.3268 18.16C43.5908 17.698 43.9464 17.3203 44.3938 17.027C44.8484 16.7337 45.3728 16.51 45.9668 16.356C46.5681 16.2093 47.2318 16.081 47.9578 15.971C48.6911 15.8537 49.4061 15.7547 50.1028 15.674C50.8068 15.586 51.4228 15.5017 51.9508 15.421L51.3788 15.773C51.4008 14.5997 51.1734 13.7307 50.6968 13.166C50.2201 12.6013 49.3914 12.319 48.2108 12.319C47.3968 12.319 46.7074 12.5023 46.1428 12.869C45.5854 13.2357 45.1931 13.815 44.9658 14.607L43.3928 14.145C43.6641 13.0817 44.2104 12.2567 45.0318 11.67C45.8531 11.0833 46.9201 10.79 48.2328 10.79C49.3181 10.79 50.2384 10.9953 50.9938 11.406C51.7564 11.8093 52.2954 12.396 52.6108 13.166C52.7574 13.5107 52.8528 13.8957 52.8968 14.321C52.9408 14.7463 52.9628 15.179 52.9628 15.619V23H51.5218V20.019L51.9398 20.195C51.5364 21.2143 50.9094 21.9917 50.0588 22.527C49.2081 23.0623 48.1888 23.33 47.0008 23.33ZM47.1878 21.933C47.9431 21.933 48.6031 21.7973 49.1678 21.526C49.7324 21.2547 50.1871 20.8843 50.5318 20.415C50.8764 19.9383 51.1001 19.403 51.2028 18.809C51.2908 18.4277 51.3384 18.0097 51.3458 17.555C51.3531 17.093 51.3568 16.7483 51.3568 16.521L51.9728 16.84C51.4228 16.9133 50.8251 16.9867 50.1798 17.06C49.5418 17.1333 48.9111 17.2177 48.2878 17.313C47.6718 17.4083 47.1144 17.522 46.6158 17.654C46.2784 17.7493 45.9521 17.885 45.6368 18.061C45.3214 18.2297 45.0611 18.457 44.8558 18.743C44.6578 19.029 44.5588 19.3847 44.5588 19.81C44.5588 20.1547 44.6431 20.4883 44.8118 20.811C44.9878 21.1337 45.2664 21.4013 45.6478 21.614C46.0364 21.8267 46.5498 21.933 47.1878 21.933ZM62.2944 23C61.627 23.1393 60.967 23.1943 60.3144 23.165C59.669 23.1357 59.0897 22.9963 58.5764 22.747C58.0704 22.4977 57.6854 22.109 57.4214 21.581C57.2087 21.141 57.0914 20.6973 57.0694 20.25C57.0547 19.7953 57.0474 19.2783 57.0474 18.699V7.82H58.6534V18.633C58.6534 19.1317 58.657 19.5497 58.6644 19.887C58.679 20.217 58.756 20.5103 58.8954 20.767C59.1594 21.2583 59.5774 21.5517 60.1494 21.647C60.7287 21.7423 61.4437 21.7203 62.2944 21.581V23ZM54.5064 12.506V11.12H62.2944V12.506H54.5064ZM68.034 23.33C67.1393 23.33 66.3876 23.1687 65.779 22.846C65.1776 22.5233 64.7266 22.0943 64.426 21.559C64.1253 21.0237 63.975 20.4407 63.975 19.81C63.975 19.1647 64.1033 18.6147 64.36 18.16C64.624 17.698 64.9796 17.3203 65.427 17.027C65.8816 16.7337 66.406 16.51 67 16.356C67.6013 16.2093 68.265 16.081 68.991 15.971C69.7243 15.8537 70.4393 15.7547 71.136 15.674C71.84 15.586 72.456 15.5017 72.984 15.421L72.412 15.773C72.434 14.5997 72.2066 13.7307 71.73 13.166C71.2533 12.6013 70.4246 12.319 69.244 12.319C68.43 12.319 67.7406 12.5023 67.176 12.869C66.6186 13.2357 66.2263 13.815 65.999 14.607L64.426 14.145C64.6973 13.0817 65.2436 12.2567 66.065 11.67C66.8863 11.0833 67.9533 10.79 69.266 10.79C70.3513 10.79 71.2716 10.9953 72.027 11.406C72.7896 11.8093 73.3286 12.396 73.644 13.166C73.7906 13.5107 73.886 13.8957 73.93 14.321C73.974 14.7463 73.996 15.179 73.996 15.619V23H72.555V20.019L72.973 20.195C72.5696 21.2143 71.9426 21.9917 71.092 22.527C70.2413 23.0623 69.222 23.33 68.034 23.33ZM68.221 21.933C68.9763 21.933 69.6363 21.7973 70.201 21.526C70.7656 21.2547 71.2203 20.8843 71.565 20.415C71.9096 19.9383 72.1333 19.403 72.236 18.809C72.324 18.4277 72.3716 18.0097 72.379 17.555C72.3863 17.093 72.39 16.7483 72.39 16.521L73.006 16.84C72.456 16.9133 71.8583 16.9867 71.213 17.06C70.575 17.1333 69.9443 17.2177 69.321 17.313C68.705 17.4083 68.1476 17.522 67.649 17.654C67.3116 17.7493 66.9853 17.885 66.67 18.061C66.3546 18.2297 66.0943 18.457 65.889 18.743C65.691 19.029 65.592 19.3847 65.592 19.81C65.592 20.1547 65.6763 20.4883 65.845 20.811C66.021 21.1337 66.2996 21.4013 66.681 21.614C67.0696 21.8267 67.583 21.933 68.221 21.933ZM91.0276 23L91.0386 15.201C91.0386 14.2843 90.7819 13.5657 90.2686 13.045C89.7626 12.517 89.1172 12.253 88.3326 12.253C87.8852 12.253 87.4489 12.3557 87.0236 12.561C86.5982 12.7663 86.2462 13.0963 85.9676 13.551C85.6962 14.0057 85.5606 14.5997 85.5606 15.333L84.6036 15.058C84.5816 14.2073 84.7466 13.463 85.0986 12.825C85.4579 12.187 85.9492 11.692 86.5726 11.34C87.2032 10.9807 87.9146 10.801 88.7066 10.801C89.9019 10.801 90.8589 11.1713 91.5776 11.912C92.2962 12.6453 92.6556 13.639 92.6556 14.893L92.6446 23H91.0276ZM76.8486 23V11.12H78.3006V14.046H78.4766V23H76.8486ZM83.9546 23L83.9656 15.311C83.9656 14.365 83.7126 13.6207 83.2066 13.078C82.7079 12.528 82.0479 12.253 81.2266 12.253C80.4052 12.253 79.7416 12.5353 79.2356 13.1C78.7296 13.6573 78.4766 14.4017 78.4766 15.333L77.5086 14.805C77.5086 14.0423 77.6882 13.3603 78.0476 12.759C78.4069 12.1503 78.8982 11.6737 79.5216 11.329C80.1449 10.977 80.8526 10.801 81.6446 10.801C82.3999 10.801 83.0709 10.9623 83.6576 11.285C84.2516 11.6077 84.7172 12.077 85.0546 12.693C85.3919 13.309 85.5606 14.057 85.5606 14.937L85.5496 23H83.9546ZM100.405 23.33C99.2239 23.33 98.2156 23.0623 97.3796 22.527C96.5436 21.9917 95.9019 21.251 95.4546 20.305C95.0072 19.359 94.7836 18.2737 94.7836 17.049C94.7836 15.8023 95.0109 14.7097 95.4656 13.771C95.9202 12.8323 96.5656 12.1027 97.4016 11.582C98.2449 11.054 99.2459 10.79 100.405 10.79C101.593 10.79 102.605 11.0577 103.441 11.593C104.284 12.121 104.926 12.858 105.366 13.804C105.813 14.7427 106.037 15.8243 106.037 17.049C106.037 18.2957 105.813 19.392 105.366 20.338C104.918 21.2767 104.273 22.01 103.43 22.538C102.586 23.066 101.578 23.33 100.405 23.33ZM100.405 21.779C101.725 21.779 102.707 21.3427 103.353 20.47C103.998 19.59 104.321 18.4497 104.321 17.049C104.321 15.6117 103.994 14.4677 103.342 13.617C102.696 12.7663 101.717 12.341 100.405 12.341C99.5172 12.341 98.7839 12.5427 98.2046 12.946C97.6326 13.342 97.2036 13.8957 96.9176 14.607C96.6389 15.311 96.4996 16.125 96.4996 17.049C96.4996 18.479 96.8296 19.6267 97.4896 20.492C98.1496 21.35 99.1212 21.779 100.405 21.779ZM111.675 23L107.363 11.12H110.355L113.171 19.348L115.987 11.12H118.979L114.667 23H111.675ZM121.187 9.47V6.83H124.179V9.47H121.187ZM121.187 23V11.12H124.179V23H121.187ZM132.999 23.33C131.781 23.33 130.707 23.0697 129.776 22.549C128.852 22.021 128.126 21.2987 127.598 20.382C127.077 19.458 126.817 18.402 126.817 17.214C126.817 15.916 127.073 14.7867 127.587 13.826C128.1 12.8653 128.808 12.121 129.71 11.593C130.612 11.0577 131.649 10.79 132.823 10.79C134.069 10.79 135.129 11.0833 136.002 11.67C136.874 12.2567 137.52 13.0817 137.938 14.145C138.356 15.2083 138.502 16.4587 138.378 17.896H135.419V16.796C135.419 15.586 135.224 14.717 134.836 14.189C134.454 13.6537 133.827 13.386 132.955 13.386C131.935 13.386 131.184 13.6977 130.7 14.321C130.223 14.937 129.985 15.85 129.985 17.06C129.985 18.1673 130.223 19.0253 130.7 19.634C131.184 20.2353 131.891 20.536 132.823 20.536C133.409 20.536 133.912 20.4077 134.33 20.151C134.748 19.8943 135.067 19.524 135.287 19.04L138.279 19.898C137.831 20.9833 137.124 21.8267 136.156 22.428C135.195 23.0293 134.143 23.33 132.999 23.33ZM129.061 17.896V15.674H136.937V17.896H129.061Z" fill="white"/>
</svg>
