<svg width="94" height="126" viewBox="0 0 94 126" fill="none" xmlns="http://www.w3.org/2000/svg">
<path d="M0.000976562 0H30.4136C48.0867 0 62.4136 14.3269 62.4136 32V32H0.000976562V0Z" fill="#6448CD"/>
<path d="M31.2061 64V64C13.9713 64 -0.000236511 77.9715 -0.000236511 95.2063V96H31.2061V64Z" fill="#FF9887"/>
<path d="M62.415 32V32C79.6498 32 93.6213 45.9715 93.6213 63.2063V96H62.415V32Z" fill="#6448CD"/>
<rect x="62.415" width="31.2063" height="32" fill="#6448CD"/>
<path d="M1.33 120V106.32H9.1865V107.716H2.7265V112.466H8.0465V113.853H2.7265V120H1.33ZM13.4686 120.285C12.696 120.285 12.0468 120.146 11.5211 119.867C11.0018 119.588 10.6123 119.218 10.3526 118.755C10.093 118.293 9.96313 117.79 9.96313 117.245C9.96313 116.688 10.074 116.213 10.2956 115.82C10.5236 115.421 10.8308 115.095 11.2171 114.841C11.6098 114.588 12.0626 114.395 12.5756 114.262C13.095 114.135 13.6681 114.024 14.2951 113.929C14.9285 113.828 15.546 113.743 16.1476 113.673C16.7556 113.597 17.2876 113.524 17.7436 113.454L17.2496 113.758C17.2686 112.745 17.0723 111.995 16.6606 111.507C16.249 111.019 15.5333 110.775 14.5136 110.775C13.8106 110.775 13.2153 110.934 12.7276 111.25C12.2463 111.567 11.9075 112.067 11.7111 112.751L10.3526 112.352C10.587 111.434 11.0588 110.722 11.7681 110.215C12.4775 109.708 13.399 109.455 14.5326 109.455C15.47 109.455 16.2648 109.632 16.9171 109.987C17.5758 110.335 18.0413 110.842 18.3136 111.507C18.4403 111.805 18.5226 112.137 18.5606 112.504C18.5986 112.872 18.6176 113.245 18.6176 113.625V120H17.3731V117.425L17.7341 117.577C17.3858 118.458 16.8443 119.129 16.1096 119.591C15.375 120.054 14.4946 120.285 13.4686 120.285ZM13.6301 119.078C14.2825 119.078 14.8525 118.961 15.3401 118.727C15.8278 118.493 16.2205 118.173 16.5181 117.767C16.8158 117.356 17.009 116.893 17.0976 116.38C17.1736 116.051 17.2148 115.69 17.2211 115.297C17.2275 114.898 17.2306 114.601 17.2306 114.404L17.7626 114.68C17.2876 114.743 16.7715 114.807 16.2141 114.87C15.6631 114.933 15.1185 115.006 14.5801 115.088C14.0481 115.171 13.5668 115.269 13.1361 115.383C12.8448 115.465 12.563 115.582 12.2906 115.734C12.0183 115.88 11.7935 116.076 11.6161 116.323C11.4451 116.57 11.3596 116.878 11.3596 117.245C11.3596 117.543 11.4325 117.831 11.5781 118.109C11.7301 118.388 11.9708 118.619 12.3001 118.803C12.6358 118.987 13.0791 119.078 13.6301 119.078ZM26.6767 120C26.1004 120.12 25.5304 120.168 24.9667 120.143C24.4094 120.117 23.9091 119.997 23.4657 119.781C23.0287 119.566 22.6962 119.23 22.4682 118.774C22.2846 118.394 22.1832 118.011 22.1642 117.625C22.1516 117.232 22.1452 116.786 22.1452 116.285V106.89H23.5322V116.228C23.5322 116.659 23.5354 117.02 23.5417 117.311C23.5544 117.596 23.6209 117.85 23.7412 118.071C23.9692 118.496 24.3302 118.749 24.8242 118.831C25.3246 118.914 25.9421 118.895 26.6767 118.774V120ZM19.9507 110.937V109.74H26.6767V110.937H19.9507ZM31.6337 120.285C30.861 120.285 30.2118 120.146 29.6862 119.867C29.1668 119.588 28.7773 119.218 28.5177 118.755C28.258 118.293 28.1282 117.79 28.1282 117.245C28.1282 116.688 28.239 116.213 28.4607 115.82C28.6887 115.421 28.9958 115.095 29.3822 114.841C29.7748 114.588 30.2277 114.395 30.7407 114.262C31.26 114.135 31.8332 114.024 32.4602 113.929C33.0935 113.828 33.711 113.743 34.3127 113.673C34.9207 113.597 35.4527 113.524 35.9087 113.454L35.4147 113.758C35.4337 112.745 35.2373 111.995 34.8257 111.507C34.414 111.019 33.6983 110.775 32.6787 110.775C31.9757 110.775 31.3803 110.934 30.8927 111.25C30.4113 111.567 30.0725 112.067 29.8762 112.751L28.5177 112.352C28.752 111.434 29.2238 110.722 29.9332 110.215C30.6425 109.708 31.564 109.455 32.6977 109.455C33.635 109.455 34.4298 109.632 35.0822 109.987C35.7408 110.335 36.2063 110.842 36.4787 111.507C36.6053 111.805 36.6877 112.137 36.7257 112.504C36.7637 112.872 36.7827 113.245 36.7827 113.625V120H35.5382V117.425L35.8992 117.577C35.5508 118.458 35.0093 119.129 34.2747 119.591C33.54 120.054 32.6597 120.285 31.6337 120.285ZM31.7952 119.078C32.4475 119.078 33.0175 118.961 33.5052 118.727C33.9928 118.493 34.3855 118.173 34.6832 117.767C34.9808 117.356 35.174 116.893 35.2627 116.38C35.3387 116.051 35.3798 115.69 35.3862 115.297C35.3925 114.898 35.3957 114.601 35.3957 114.404L35.9277 114.68C35.4527 114.743 34.9365 114.807 34.3792 114.87C33.8282 114.933 33.2835 115.006 32.7452 115.088C32.2132 115.171 31.7318 115.269 31.3012 115.383C31.0098 115.465 30.728 115.582 30.4557 115.734C30.1833 115.88 29.9585 116.076 29.7812 116.323C29.6102 116.57 29.5247 116.878 29.5247 117.245C29.5247 117.543 29.5975 117.831 29.7432 118.109C29.8952 118.388 30.1358 118.619 30.4652 118.803C30.8008 118.987 31.2442 119.078 31.7952 119.078ZM51.4918 120L51.5013 113.264C51.5013 112.473 51.2796 111.852 50.8363 111.402C50.3993 110.946 49.8419 110.718 49.1643 110.718C48.7779 110.718 48.4011 110.807 48.0338 110.984C47.6664 111.162 47.3624 111.447 47.1218 111.839C46.8874 112.232 46.7703 112.745 46.7703 113.378L45.9438 113.141C45.9248 112.406 46.0673 111.763 46.3713 111.212C46.6816 110.661 47.1059 110.234 47.6443 109.93C48.1889 109.62 48.8033 109.464 49.4873 109.464C50.5196 109.464 51.3461 109.784 51.9668 110.424C52.5874 111.057 52.8978 111.915 52.8978 112.998L52.8883 120H51.4918ZM39.2463 120V109.74H40.5003V112.267H40.6523V120H39.2463ZM45.3833 120L45.3928 113.359C45.3928 112.542 45.1743 111.9 44.7373 111.431C44.3066 110.956 43.7366 110.718 43.0273 110.718C42.3179 110.718 41.7448 110.962 41.3078 111.45C40.8708 111.931 40.6523 112.574 40.6523 113.378L39.8163 112.922C39.8163 112.264 39.9714 111.675 40.2818 111.155C40.5921 110.63 41.0164 110.218 41.5548 109.92C42.0931 109.616 42.7043 109.464 43.3883 109.464C44.0406 109.464 44.6201 109.604 45.1268 109.882C45.6398 110.161 46.0419 110.566 46.3333 111.098C46.6246 111.63 46.7703 112.276 46.7703 113.036L46.7608 120H45.3833ZM59.5901 120.285C58.5704 120.285 57.6996 120.054 56.9776 119.591C56.2556 119.129 55.7014 118.489 55.3151 117.672C54.9288 116.855 54.7356 115.918 54.7356 114.86C54.7356 113.784 54.9319 112.84 55.3246 112.029C55.7173 111.219 56.2746 110.589 56.9966 110.139C57.7249 109.683 58.5894 109.455 59.5901 109.455C60.6161 109.455 61.4901 109.686 62.2121 110.148C62.9404 110.604 63.4946 111.241 63.8746 112.058C64.2609 112.869 64.4541 113.803 64.4541 114.86C64.4541 115.937 64.2609 116.884 63.8746 117.701C63.4883 118.512 62.9309 119.145 62.2026 119.601C61.4743 120.057 60.6034 120.285 59.5901 120.285ZM59.5901 118.945C60.7301 118.945 61.5788 118.569 62.1361 117.815C62.6934 117.055 62.9721 116.07 62.9721 114.86C62.9721 113.619 62.6903 112.631 62.1266 111.896C61.5693 111.162 60.7238 110.794 59.5901 110.794C58.8238 110.794 58.1904 110.969 57.6901 111.317C57.1961 111.659 56.8256 112.137 56.5786 112.751C56.3379 113.359 56.2176 114.062 56.2176 114.86C56.2176 116.095 56.5026 117.087 57.0726 117.834C57.6426 118.575 58.4818 118.945 59.5901 118.945ZM69.3237 120L65.5997 109.74H67.8892L70.4732 117.178L73.0477 109.74H75.3467L71.6227 120H69.3237ZM77.2417 108.182V106.082H79.5312V108.182H77.2417ZM77.2417 120V109.74H79.5312V120H77.2417ZM87.0414 120.285C86.0027 120.285 85.0907 120.06 84.3054 119.61C83.52 119.161 82.9057 118.537 82.4624 117.739C82.0254 116.941 81.8069 116.023 81.8069 114.984C81.8069 113.863 82.0222 112.891 82.4529 112.067C82.8835 111.238 83.482 110.595 84.2484 110.139C85.0147 109.683 85.9014 109.455 86.9084 109.455C87.9724 109.455 88.8749 109.705 89.6159 110.205C90.3632 110.699 90.9174 111.399 91.2784 112.305C91.6394 113.211 91.7755 114.278 91.6869 115.506H89.4164V114.67C89.41 113.556 89.2137 112.742 88.8274 112.229C88.441 111.716 87.833 111.459 87.0034 111.459C86.066 111.459 85.3694 111.751 84.9134 112.333C84.4574 112.91 84.2294 113.755 84.2294 114.87C84.2294 115.909 84.4574 116.713 84.9134 117.283C85.3694 117.853 86.0344 118.138 86.9084 118.138C87.472 118.138 87.9565 118.014 88.3619 117.767C88.7735 117.514 89.0902 117.15 89.3119 116.675L91.5729 117.359C91.1802 118.284 90.5722 119.002 89.7489 119.515C88.9319 120.028 88.0294 120.285 87.0414 120.285ZM83.5074 115.506V113.777H90.5659V115.506H83.5074Z" fill="white"/>
</svg>
